<svg id="Icons" height="512" viewBox="0 0 74 74" width="512" xmlns="http://www.w3.org/2000/svg"><path d="m59.471 50.92a1.117 1.117 0 0 1 -.114-.006 1 1 0 0 1 -.881-1.106l.33-2.92a1 1 0 1 1 1.988.224l-.33 2.92a1 1 0 0 1 -.993.888z"/><path d="m55.25 72h-36.5a3.013 3.013 0 0 1 -3-2.693l-5.783-50.507a1 1 0 0 1 .993-1.114h52.08a1 1 0 0 1 .993 1.113l-1.309 11.48a1 1 0 1 1 -1.987-.226l1.183-10.363h-49.839l5.652 49.4a1.032 1.032 0 0 0 1.017.91h36.5a1.03 1.03 0 0 0 1.016-.906l1.411-12.328a1 1 0 1 1 1.986.228l-1.41 12.32a3.01 3.01 0 0 1 -3.003 2.686z"/><path d="m60.6 41.04a1.088 1.088 0 0 1 -.114-.006 1 1 0 0 1 -.882-1.106l.331-2.92a1 1 0 1 1 1.988.224l-.33 2.92a1 1 0 0 1 -.993.888z"/><path d="m65.74 19.689h-57.48a2.242 2.242 0 0 1 -2.239-2.24v-5.357a2.242 2.242 0 0 1 2.239-2.24h57.48a2.242 2.242 0 0 1 2.239 2.24v5.357a2.242 2.242 0 0 1 -2.239 2.24zm-57.48-7.837a.239.239 0 0 0 -.239.24v5.357a.239.239 0 0 0 .239.24h57.48a.239.239 0 0 0 .239-.24v-5.357a.239.239 0 0 0 -.239-.24z"/><path d="m46.411 11.852h-18.822a1 1 0 0 1 -1-1v-5.822a3.033 3.033 0 0 1 3.03-3.03h14.762a3.033 3.033 0 0 1 3.03 3.03v5.822a1 1 0 0 1 -1 1zm-17.822-2h16.822v-4.822a1.031 1.031 0 0 0 -1.03-1.03h-14.762a1.031 1.031 0 0 0 -1.03 1.03z"/><path d="m46.81 57.509h-.079a1 1 0 0 1 -.919-1.074l1.888-24.362a.988.988 0 0 1 1.074-.92 1 1 0 0 1 .92 1.075l-1.888 24.358a1 1 0 0 1 -.996.923z"/><path d="m37 57.509a1 1 0 0 1 -1-1v-24.359a1 1 0 0 1 2 0v24.359a1 1 0 0 1 -1 1z"/><path d="m27.19 57.509a1 1 0 0 1 -1-.923l-1.881-24.358a1 1 0 0 1 .92-1.075.99.99 0 0 1 1.074.92l1.885 24.359a1 1 0 0 1 -.919 1.074z"/></svg>